# xmcd
# 
# Track frame offsets:
#     182
#     16845
#     31232
#     46372
#     69255
#     84875
#     100887
#     116070
#     128490
#     140902
# 
# Disc length: 2102
# 
# Revision: 0
# Processed by: cddbd v1.5.2PL0 Copyright (c) Steve Scherf et al.
# Submitted via: fre:ac v1.0.31
# 
DISCID=7a08340a
DTITLE=Southside Johnny and The Asbury Jukes - Best of Southside
DYEAR=1976
DGENRE=Rock
TTITLE0=I Don't Want To Go Home
TTITLE1=Got To Get You Off My Mind
TTITLE2=How Come You Treat Me So Bad
TTITLE3=The Fever
TTITLE4=Broke Down Piece of Man
TTITLE5=Sweeter Than Honey
TTITLE6=Fannie Mae
TTITLE7=It Ain't The Meat (It's The Motion)
TTITLE8=I Choose To Sing The Blues
TTITLE9=You Mean So Much To Me
EXTD=YEAR: 1976
EXTT0=
EXTT1=
EXTT2=
EXTT3=
EXTT4=
EXTT5=
EXTT6=
EXTT7=
EXTT8=
EXTT9=
PLAYORDER=
